<?xml version="1.0" encoding="iso-8859-1"?>
<!-- Generator: Adobe Illustrator 19.0.0, SVG Export Plug-In . SVG Version: 6.00 Build 0)  -->
<svg version="1.1" id="Layer_1" xmlns="http://www.w3.org/2000/svg" xmlns:xlink="http://www.w3.org/1999/xlink" x="0px" y="0px"
	 viewBox="0 0 512 512" style="enable-background:new 0 0 512 512;" xml:space="preserve">
<g>
	<rect width="512" height="512" style="fill:#E6EEF4;" />
	<g>
		<polygon style="fill:#D71E00;" points="256,176.552 150.069,308.966 256,441.379 361.931,308.966 		"/>
		<path style="fill:#D71E00;" d="M150.069,141.241l8.828-8.828h-52.966c-4.875,0-8.828,3.952-8.828,8.828s3.952,8.828,8.828,8.828
			h52.966c4.875,0,8.828-3.952,8.828-8.828v-8.828c0-4.875-3.952-8.828-8.828-8.828s-8.828,3.952-8.828,8.828V141.241z"/>
		<path style="fill:#D71E00;" d="M155.813,81.484l2.335-2.758l0.608-0.807c14.226-21.339-0.114-51.01-25.754-51.434l-0.588-0.001
			c-19.503,0-35.31,15.808-35.31,35.31c0,4.875,3.952,8.828,8.828,8.828c4.875,0,8.828-3.952,8.828-8.828
			c0-9.752,7.903-17.655,17.655-17.655h0.441c11.188,0.187,17.866,14.003,11.211,23.987l7.345,4.897l-6.737-5.704l-2.339,2.763
			c-17.382,20.563-32.248,43.121-44.298,67.212c-2.181,4.36-0.414,9.663,3.946,11.844c4.36,2.181,9.663,0.414,11.844-3.946
			C125.249,122.353,139.341,100.97,155.813,81.484z"/>
	</g>
</g>
<g>
</g>
<g>
</g>
<g>
</g>
<g>
</g>
<g>
</g>
<g>
</g>
<g>
</g>
<g>
</g>
<g>
</g>
<g>
</g>
<g>
</g>
<g>
</g>
<g>
</g>
<g>
</g>
<g>
</g>
</svg>
